# xmcd
#
# Track frame offsets: 
#        150
#        6365
#        26290
#        33335
#        42927
#        52810
#        54562
#        69145
#        104680
#        150882
#        180550
#        198345
#
# Disc length: 2811 seconds
#
# Revision: 0
# Processed by: cddbd v1.5.2PL0 Copyright (c) Steve Scherf et al.
# Submitted via: ExactAudioCopy v1.0b3
#
DISCID=8a0af90c
DTITLE=Phil Driscoll - Gabe And The Good News Gang (1990)
DYEAR=1990
DGENRE=Children's Music
TTITLE0=Gabe And The Good News Gang
TTITLE1=Heaven
TTITLE2=Wake Up
TTITLE3=Saturday's Song
TTITLE4=New Kid
TTITLE5=Kool Breeze Rap
TTITLE6=Good News Gang Theme Song
TTITLE7=Midi Man Theme Song
TTITLE8=Beginning Of Midi Man In Heaven
TTITLE9=Traveling Song
TTITLE10=Sticks And Stones
TTITLE11=Come Into My Heart
EXTD=
EXTT0=
EXTT1=
EXTT2=
EXTT3=
EXTT4=
EXTT5=
EXTT6=
EXTT7=
EXTT8=
EXTT9=
EXTT10=
EXTT11=
PLAYORDER=
